<?xml version="1.0" encoding="UTF-8"?>
<svg id="Layer_1" xmlns="http://www.w3.org/2000/svg" xmlns:xlink="http://www.w3.org/1999/xlink" viewBox="0 0 179.44 265.55">
  <defs>
    <style>
      .cls-1 {
        font-size: 13.5px;
        letter-spacing: 0em;
      }

      .cls-1, .cls-2, .cls-3, .cls-4, .cls-5, .cls-6, .cls-7, .cls-8, .cls-9, .cls-10, .cls-11, .cls-12, .cls-13 {
        font-family: NHaasGroteskDSPro-55Rg, 'Neue Haas Grotesk Display Pro';
      }

      .cls-14, .cls-15, .cls-16, .cls-17, .cls-18, .cls-19, .cls-20, .cls-21, .cls-22 {
        font-weight: 500;
      }

      .cls-14, .cls-15, .cls-16, .cls-17, .cls-19, .cls-20, .cls-22 {
        font-family: PlayfairDisplayItalic-Medium, 'Playfair Display';
        font-variation-settings: 'wght' 500;
      }

      .cls-14, .cls-16 {
        letter-spacing: 0em;
      }

      .cls-2, .cls-15, .cls-16, .cls-23, .cls-18, .cls-3, .cls-20, .cls-12, .cls-22, .cls-13 {
        font-size: 12.59px;
      }

      .cls-2, .cls-22 {
        letter-spacing: 0em;
      }

      .cls-24 {
        fill: #e2e2e2;
      }

      .cls-25 {
        letter-spacing: .33em;
      }

      .cls-26 {
        letter-spacing: .33em;
      }

      .cls-27 {
        letter-spacing: .33em;
      }

      .cls-23 {
        filter: url(#drop-shadow-5);
      }

      .cls-23, .cls-18, .cls-28, .cls-29, .cls-9, .cls-10 {
        fill: #fff;
      }

      .cls-18, .cls-21 {
        font-family: NHaasGroteskDSPro-65Md, 'Neue Haas Grotesk Display Pro';
      }

      .cls-19 {
        letter-spacing: -.02em;
      }

      .cls-30 {
        letter-spacing: .15em;
      }

      .cls-31 {
        letter-spacing: .15em;
      }

      .cls-32 {
        fill: url(#linear-gradient);
        opacity: .18;
      }

      .cls-33 {
        letter-spacing: 0em;
      }

      .cls-28 {
        stroke: #e1e1e1;
        stroke-width: .75px;
      }

      .cls-28, .cls-34 {
        stroke-miterlimit: 10;
      }

      .cls-4 {
        letter-spacing: 0em;
      }

      .cls-29 {
        filter: url(#drop-shadow-2);
      }

      .cls-5 {
        filter: url(#drop-shadow-3);
      }

      .cls-5, .cls-6, .cls-7 {
        fill: #333;
        font-size: 86.77px;
        opacity: .4;
      }

      .cls-6 {
        filter: url(#drop-shadow-1);
      }

      .cls-7 {
        filter: url(#drop-shadow-4);
      }

      .cls-20 {
        letter-spacing: -.02em;
      }

      .cls-9 {
        font-size: 9.44px;
      }

      .cls-10 {
        font-size: 6.29px;
      }

      .cls-11 {
        fill: #e5e5e4;
        font-size: 6.03px;
      }

      .cls-35 {
        letter-spacing: -.06em;
      }

      .cls-36 {
        letter-spacing: -.02em;
      }

      .cls-37 {
        letter-spacing: -.02em;
      }

      .cls-38 {
        letter-spacing: -.01em;
      }

      .cls-39 {
        letter-spacing: -.01em;
      }

      .cls-34 {
        fill: none;
        opacity: .6;
        stroke: #fff;
      }

      .cls-12 {
        letter-spacing: 0em;
      }

      .cls-21 {
        fill: #6d71b4;
        font-size: 18.88px;
      }

      .cls-40 {
        letter-spacing: 0em;
      }

      .cls-41 {
        letter-spacing: -.01em;
      }

      .cls-42 {
        letter-spacing: -.01em;
      }

      .cls-43 {
        letter-spacing: -.01em;
      }

      .cls-44 {
        letter-spacing: -.01em;
      }

      .cls-45 {
        letter-spacing: 0em;
      }

      .cls-46 {
        letter-spacing: 0em;
      }

      .cls-13 {
        letter-spacing: -.02em;
      }

      .cls-47 {
        letter-spacing: 0em;
      }

      .cls-48 {
        letter-spacing: 0em;
      }

      .cls-49 {
        letter-spacing: 0em;
      }
    </style>
    <filter id="drop-shadow-1" filterUnits="userSpaceOnUse">
      <feOffset dx="0" dy="0"/>
      <feGaussianBlur result="blur" stdDeviation="22"/>
      <feFlood flood-color="#000" flood-opacity=".75"/>
      <feComposite in2="blur" operator="in"/>
      <feComposite in="SourceGraphic"/>
    </filter>
    <filter id="drop-shadow-2" filterUnits="userSpaceOnUse">
      <feOffset dx="0" dy="0"/>
      <feGaussianBlur result="blur-2" stdDeviation="22"/>
      <feFlood flood-color="#000" flood-opacity=".75"/>
      <feComposite in2="blur-2" operator="in"/>
      <feComposite in="SourceGraphic"/>
    </filter>
    <filter id="drop-shadow-3" filterUnits="userSpaceOnUse">
      <feOffset dx="0" dy="0"/>
      <feGaussianBlur result="blur-3" stdDeviation="22"/>
      <feFlood flood-color="#000" flood-opacity=".75"/>
      <feComposite in2="blur-3" operator="in"/>
      <feComposite in="SourceGraphic"/>
    </filter>
    <filter id="drop-shadow-4" filterUnits="userSpaceOnUse">
      <feOffset dx="0" dy="0"/>
      <feGaussianBlur result="blur-4" stdDeviation="22"/>
      <feFlood flood-color="#000" flood-opacity=".75"/>
      <feComposite in2="blur-4" operator="in"/>
      <feComposite in="SourceGraphic"/>
    </filter>
    <linearGradient id="linear-gradient" x1="89.7" y1="1.44" x2="89.7" y2="264.86" gradientUnits="userSpaceOnUse">
      <stop offset="0" stop-color="#fff" stop-opacity="0"/>
      <stop offset="1" stop-color="#000"/>
    </linearGradient>
    <filter id="drop-shadow-5" filterUnits="userSpaceOnUse">
      <feOffset dx="0" dy="0"/>
      <feGaussianBlur result="blur-5" stdDeviation="22"/>
      <feFlood flood-color="#000" flood-opacity=".75"/>
      <feComposite in2="blur-5" operator="in"/>
      <feComposite in="SourceGraphic"/>
    </filter>
  </defs>
  <g>
    <text class="cls-6" transform="translate(196.71 265.11)"><tspan class="cls-35" x="0" y="0">V</tspan><tspan x="48.5" y="0">ault</tspan></text>
    <text class="cls-29" transform="translate(210.87 61.77)"><tspan class="cls-13" x="0" y="0">E</tspan><tspan class="cls-12" x="7.58" y="0">v</tspan><tspan class="cls-3" x="13.25" y="0">e</tspan><tspan class="cls-12" x="19.96" y="0">n</tspan><tspan class="cls-2" x="26.48" y="0">t</tspan><tspan class="cls-1" x="30.34" y="0"> </tspan><tspan class="cls-16" x="32.49" y="0">C</tspan><tspan class="cls-22" x="41" y="0">a</tspan><tspan class="cls-20" x="47.73" y="0">r</tspan><tspan class="cls-15" x="53.06" y="0">d</tspan></text>
  </g>
  <text class="cls-5" transform="translate(-194.04 265.41)"><tspan class="cls-35" x="0" y="0">V</tspan><tspan x="48.5" y="0">ault</tspan></text>
  <g>
    <polygon points="81.1 0 81.09 0 20.95 0 20.95 0 -.04 0 -.04 72.31 -.04 171.19 -.04 265.55 98.28 265.55 98.28 265.55 158.43 265.55 158.43 265.55 179.41 265.55 179.41 193.24 179.41 94.37 179.41 0 81.1 0"/>
    <text class="cls-7" transform="translate(.27 265.19)"><tspan class="cls-35" x="0" y="0">V</tspan><tspan x="48.5" y="0">ault</tspan></text>
    <rect class="cls-32" x="-.01" y=".09" width="179.43" height="265.53"/>
    <g>
      <g>
        <text class="cls-10" transform="translate(14.69 116.02)"><tspan class="cls-48" x="0" y="0">Big</tspan><tspan class="cls-26" x="8.63" y="0"> </tspan><tspan class="cls-48" x="11.69" y="0">success</tspan><tspan class="cls-26" x="33.78" y="0"> </tspan><tspan class="cls-47" x="36.83" y="0">is</tspan><tspan class="cls-26" x="41.02" y="0"> </tspan><tspan class="cls-47" x="44.07" y="0">whe</tspan><tspan class="cls-36" x="55.33" y="0">r</tspan><tspan class="cls-47" x="57.35" y="0">e</tspan><tspan class="cls-26" x="60.69" y="0"> </tspan><tspan class="cls-41" x="63.75" y="0">y</tspan><tspan class="cls-47" x="66.75" y="0">our</tspan><tspan class="cls-25" x="75.61" y="0"> </tspan><tspan class="cls-48" x="78.66" y="0">i</tspan><tspan class="cls-42" x="79.85" y="0">nv</tspan><tspan class="cls-48" x="85.92" y="0">e</tspan><tspan class="cls-41" x="89.26" y="0">s</tspan><tspan class="cls-48" x="92.2" y="0">tme</tspan><tspan class="cls-41" x="102.44" y="0">n</tspan><tspan class="cls-48" x="105.69" y="0">t</tspan><tspan class="cls-27" x="107.61" y="0"> </tspan><tspan class="cls-48" x="110.66" y="0">leaps</tspan><tspan class="cls-27" x="124.88" y="0"> </tspan><tspan class="cls-47" x="127.94" y="0">b</tspan><tspan class="cls-42" x="131.39" y="0">ey</tspan><tspan class="cls-48" x="137.67" y="0">ond </tspan><tspan class="cls-48" x="0" y="9.44">g</tspan><tspan class="cls-36" x="3.4" y="9.44">r</tspan><tspan class="cls-43" x="5.42" y="9.44">o</tspan><tspan class="cls-49" x="8.82" y="9.44">w</tspan><tspan class="cls-48" x="13.48" y="9.44">th</tspan><tspan class="cls-31" x="18.71" y="9.44"> </tspan><tspan class="cls-48" x="20.65" y="9.44">and</tspan><tspan class="cls-31" x="30.63" y="9.44"> </tspan><tspan class="cls-48" x="32.57" y="9.44">multiplies.</tspan><tspan class="cls-31" x="58.51" y="9.44"> </tspan><tspan class="cls-48" x="60.45" y="9.44">Wh</tspan><tspan class="cls-43" x="69.5" y="9.44">a</tspan><tspan class="cls-48" x="72.63" y="9.44">t</tspan><tspan class="cls-31" x="74.55" y="9.44"> </tspan><tspan class="cls-42" x="76.49" y="9.44">y</tspan><tspan class="cls-48" x="79.49" y="9.44">ou</tspan><tspan class="cls-31" x="86.2" y="9.44"> </tspan><tspan class="cls-48" x="88.14" y="9.44">put</tspan><tspan class="cls-31" x="96.78" y="9.44"> </tspan><tspan class="cls-48" x="98.72" y="9.44">in</tspan><tspan class="cls-31" x="103.22" y="9.44"> </tspan><tspan class="cls-48" x="105.16" y="9.44">comes</tspan><tspan class="cls-31" x="123.19" y="9.44"> </tspan><tspan class="cls-48" x="125.13" y="9.44">back</tspan><tspan class="cls-30" x="138.09" y="9.44"> </tspan><tspan class="cls-47" x="140.03" y="9.44">3x, </tspan><tspan class="cls-48" x="0" y="18.88">dri</tspan><tspan class="cls-42" x="6.8" y="18.88">v</tspan><tspan class="cls-48" x="9.63" y="18.88">en </tspan><tspan class="cls-42" x="17.27" y="18.88">b</tspan><tspan class="cls-48" x="20.65" y="18.88">y bold decisions and </tspan><tspan class="cls-41" x="74.44" y="18.88">s</tspan><tspan class="cls-48" x="77.37" y="18.88">t</tspan><tspan class="cls-36" x="79.29" y="18.88">r</tspan><tspan class="cls-48" x="81.31" y="18.88">ong mome</tspan><tspan class="cls-42" x="109.23" y="18.88">n</tspan><tspan class="cls-48" x="112.48" y="18.88">tum.</tspan></text>
        <g>
          <text class="cls-18" transform="translate(14.69 101.49)"><tspan x="0" y="0">Big Success</tspan></text>
          <text class="cls-10" transform="translate(14.69 87.14)"><tspan class="cls-40" x="0" y="0">R</tspan><tspan x="4.08" y="0">esult:</tspan></text>
        </g>
      </g>
      <g>
        <text class="cls-21" transform="translate(14.68 202.75)"><tspan x="0" y="0">3X Mon</tspan><tspan class="cls-38" x="62.66" y="0">e</tspan><tspan x="72.64" y="0">y</tspan></text>
        <text class="cls-9" transform="translate(14.68 183.35)"><tspan x="0" y="0">I</tspan><tspan class="cls-44" x="2.15" y="0">nv</tspan><tspan x="11.3" y="0">e</tspan><tspan class="cls-46" x="16.33" y="0">s</tspan><tspan class="cls-33" x="20.75" y="0">tme</tspan><tspan class="cls-46" x="36.17" y="0">n</tspan><tspan x="41.06" y="0">t</tspan></text>
      </g>
    </g>
    <g>
      <text class="cls-23" transform="translate(14.44 61.64)"><tspan class="cls-4" x="0" y="0">R</tspan><tspan class="cls-8" x="8.17" y="0">esult </tspan><tspan class="cls-14" x="35.78" y="0">C</tspan><tspan class="cls-17" x="44.29" y="0">a</tspan><tspan class="cls-19" x="51.02" y="0">r</tspan><tspan class="cls-17" x="56.35" y="0">d</tspan></text>
      <line class="cls-28" x1="14.78" y1="67.18" x2="167.39" y2="67.18"/>
    </g>
    <g>
      <g>
        <text class="cls-11" transform="translate(29.23 160.22)"><tspan class="cls-39" x="0" y="0">P</tspan><tspan x="3.55" y="0">ositi</tspan><tspan class="cls-45" x="13.91" y="0">v</tspan><tspan x="16.63" y="0">e </tspan><tspan class="cls-37" x="20.8" y="0">r</tspan><tspan class="cls-45" x="22.75" y="0">e</tspan><tspan x="25.9" y="0">turns</tspan></text>
        <rect class="cls-34" x="14.69" y="152.13" width="58.8" height="12.52" rx="6.26" ry="6.26"/>
      </g>
      <path class="cls-24" d="M20.14,160.6l-.29-.29,2.73-2.73,1.6,1.6,2.8-3.21.28.27-3.07,3.54-1.62-1.62-2.44,2.44Z"/>
    </g>
  </g>
</svg>