<?xml version="1.0" encoding="UTF-8"?>
<svg id="Layer_1" xmlns="http://www.w3.org/2000/svg" xmlns:xlink="http://www.w3.org/1999/xlink" viewBox="0 0 179.44 265.55">
  <defs>
    <style>
      .cls-1 {
        opacity: .78;
      }

      .cls-1, .cls-2, .cls-3, .cls-4, .cls-5, .cls-6, .cls-7, .cls-8, .cls-9, .cls-10, .cls-11, .cls-12, .cls-13, .cls-14, .cls-15, .cls-16, .cls-17, .cls-18, .cls-19, .cls-20, .cls-21, .cls-22, .cls-23, .cls-24, .cls-25, .cls-26, .cls-27, .cls-28, .cls-29, .cls-30, .cls-31, .cls-32, .cls-33, .cls-34, .cls-35, .cls-36, .cls-37, .cls-38, .cls-39, .cls-40, .cls-41, .cls-42, .cls-43, .cls-44, .cls-45, .cls-46, .cls-47, .cls-48, .cls-49, .cls-50, .cls-51, .cls-52, .cls-53, .cls-54, .cls-55, .cls-56, .cls-57, .cls-58, .cls-59, .cls-60, .cls-61, .cls-62, .cls-63, .cls-64, .cls-65, .cls-66, .cls-67, .cls-68, .cls-69, .cls-70, .cls-71, .cls-72, .cls-73, .cls-74, .cls-75, .cls-76, .cls-77, .cls-78, .cls-79, .cls-80, .cls-81, .cls-82, .cls-83, .cls-84, .cls-85, .cls-86, .cls-87, .cls-88, .cls-89, .cls-90, .cls-91, .cls-92 {
        fill: none;
        stroke: #74ffe1;
      }

      .cls-1, .cls-2, .cls-3, .cls-4, .cls-5, .cls-6, .cls-7, .cls-8, .cls-9, .cls-10, .cls-11, .cls-12, .cls-13, .cls-14, .cls-15, .cls-16, .cls-17, .cls-19, .cls-20, .cls-21, .cls-22, .cls-23, .cls-24, .cls-25, .cls-26, .cls-27, .cls-29, .cls-30, .cls-31, .cls-32, .cls-33, .cls-34, .cls-35, .cls-36, .cls-37, .cls-38, .cls-39, .cls-40, .cls-41, .cls-42, .cls-43, .cls-44, .cls-45, .cls-46, .cls-47, .cls-48, .cls-49, .cls-50, .cls-51, .cls-52, .cls-53, .cls-54, .cls-55, .cls-56, .cls-57, .cls-58, .cls-59, .cls-60, .cls-61, .cls-62, .cls-63, .cls-64, .cls-65, .cls-66, .cls-67, .cls-68, .cls-69, .cls-70, .cls-71, .cls-72, .cls-73, .cls-74, .cls-75, .cls-76, .cls-77, .cls-78, .cls-79, .cls-80, .cls-81, .cls-82, .cls-83, .cls-84, .cls-85, .cls-86, .cls-87, .cls-88, .cls-89, .cls-90, .cls-91, .cls-92 {
        stroke-miterlimit: 10;
      }

      .cls-2 {
        opacity: .19;
      }

      .cls-3 {
        opacity: .37;
      }

      .cls-4 {
        opacity: .24;
      }

      .cls-5 {
        opacity: .82;
      }

      .cls-6 {
        opacity: .51;
      }

      .cls-7 {
        opacity: .48;
      }

      .cls-8 {
        opacity: .49;
      }

      .cls-9 {
        opacity: .75;
      }

      .cls-10 {
        opacity: .09;
      }

      .cls-11 {
        opacity: .7;
      }

      .cls-12 {
        opacity: .73;
      }

      .cls-13 {
        opacity: 0;
      }

      .cls-14 {
        opacity: .35;
      }

      .cls-15 {
        opacity: .36;
      }

      .cls-16 {
        opacity: .9;
      }

      .cls-17 {
        opacity: .18;
      }

      .cls-18 {
        opacity: .97;
        stroke-miterlimit: 10;
      }

      .cls-19 {
        opacity: .45;
      }

      .cls-20 {
        opacity: .05;
      }

      .cls-21 {
        opacity: .8;
      }

      .cls-22 {
        opacity: .4;
      }

      .cls-23 {
        opacity: .79;
      }

      .cls-24 {
        opacity: .2;
      }

      .cls-25 {
        opacity: .1;
      }

      .cls-26 {
        opacity: .11;
      }

      .cls-27 {
        opacity: .71;
      }

      .cls-28 {
        opacity: .81;
        stroke-miterlimit: 10;
      }

      .cls-29 {
        opacity: .01;
      }

      .cls-30 {
        opacity: .41;
      }

      .cls-31 {
        opacity: .22;
      }

      .cls-32 {
        opacity: .31;
      }

      .cls-33 {
        opacity: .62;
      }

      .cls-35 {
        opacity: .3;
      }

      .cls-36 {
        opacity: .77;
      }

      .cls-37 {
        opacity: .88;
      }

      .cls-93 {
        font-family: PlayfairDisplayItalic-Medium, 'Playfair Display';
        font-size: 12.57px;
        font-variation-settings: 'wght' 500;
        font-weight: 500;
      }

      .cls-38 {
        opacity: .6;
      }

      .cls-39 {
        opacity: .59;
      }

      .cls-40 {
        opacity: .56;
      }

      .cls-41 {
        opacity: .02;
      }

      .cls-42 {
        opacity: .04;
      }

      .cls-43 {
        opacity: .58;
      }

      .cls-44 {
        opacity: .44;
      }

      .cls-45 {
        opacity: .38;
      }

      .cls-46 {
        opacity: .12;
      }

      .cls-47 {
        opacity: .76;
      }

      .cls-48 {
        opacity: .34;
      }

      .cls-49 {
        opacity: .16;
      }

      .cls-50 {
        opacity: .68;
      }

      .cls-51 {
        opacity: .66;
      }

      .cls-52 {
        opacity: .67;
      }

      .cls-53 {
        opacity: .15;
      }

      .cls-54 {
        opacity: .69;
      }

      .cls-55 {
        opacity: .33;
      }

      .cls-94 {
        font-size: 17.6px;
      }

      .cls-94, .cls-95, .cls-96, .cls-97 {
        font-family: NHaasGroteskDSPro-55Rg, 'Neue Haas Grotesk Display Pro';
      }

      .cls-56 {
        opacity: .96;
      }

      .cls-57 {
        opacity: .98;
      }

      .cls-58 {
        opacity: .65;
      }

      .cls-59 {
        opacity: .29;
      }

      .cls-60 {
        opacity: .14;
      }

      .cls-61 {
        opacity: .74;
      }

      .cls-98 {
        filter: url(#drop-shadow-3);
      }

      .cls-98, .cls-96, .cls-97 {
        fill: #fff;
      }

      .cls-62 {
        opacity: .27;
      }

      .cls-95 {
        fill: #333;
        filter: url(#drop-shadow-1);
        font-size: 86.77px;
        opacity: .4;
      }

      .cls-99 {
        opacity: .8;
      }

      .cls-63 {
        opacity: .08;
      }

      .cls-64 {
        opacity: .55;
      }

      .cls-65 {
        opacity: .13;
      }

      .cls-66 {
        opacity: .57;
      }

      .cls-67 {
        opacity: .53;
      }

      .cls-68 {
        opacity: .52;
      }

      .cls-69 {
        opacity: .26;
      }

      .cls-70 {
        opacity: .54;
      }

      .cls-71 {
        opacity: .07;
      }

      .cls-72 {
        opacity: .32;
      }

      .cls-73 {
        opacity: .92;
      }

      .cls-74 {
        opacity: .95;
      }

      .cls-75 {
        opacity: .87;
      }

      .cls-76 {
        opacity: .64;
      }

      .cls-77 {
        opacity: .63;
      }

      .cls-78 {
        opacity: .85;
      }

      .cls-96 {
        filter: url(#drop-shadow-4);
      }

      .cls-96, .cls-97 {
        font-size: 79.1px;
      }

      .cls-97 {
        filter: url(#drop-shadow-2);
      }

      .cls-100 {
        letter-spacing: -.06em;
      }

      .cls-101 {
        letter-spacing: -.06em;
      }

      .cls-79 {
        opacity: .86;
      }

      .cls-80 {
        opacity: .03;
      }

      .cls-102 {
        letter-spacing: -.02em;
      }

      .cls-81 {
        opacity: .43;
      }

      .cls-82 {
        opacity: .21;
      }

      .cls-83 {
        opacity: .46;
      }

      .cls-84 {
        opacity: .99;
      }

      .cls-85 {
        opacity: .47;
      }

      .cls-103 {
        letter-spacing: 0em;
      }

      .cls-86 {
        opacity: .23;
      }

      .cls-87 {
        opacity: .91;
      }

      .cls-88 {
        opacity: .89;
      }

      .cls-89 {
        opacity: .93;
      }

      .cls-90 {
        opacity: .42;
      }

      .cls-91 {
        opacity: .84;
      }

      .cls-92 {
        opacity: .25;
      }
    </style>
    <filter id="drop-shadow-1" filterUnits="userSpaceOnUse">
      <feOffset dx="0" dy="0"/>
      <feGaussianBlur result="blur" stdDeviation="22"/>
      <feFlood flood-color="#000" flood-opacity=".75"/>
      <feComposite in2="blur" operator="in"/>
      <feComposite in="SourceGraphic"/>
    </filter>
    <filter id="drop-shadow-2" filterUnits="userSpaceOnUse">
      <feOffset dx="0" dy="0"/>
      <feGaussianBlur result="blur-2" stdDeviation="22"/>
      <feFlood flood-color="#000" flood-opacity=".75"/>
      <feComposite in2="blur-2" operator="in"/>
      <feComposite in="SourceGraphic"/>
    </filter>
    <filter id="drop-shadow-3" filterUnits="userSpaceOnUse">
      <feOffset dx="0" dy="0"/>
      <feGaussianBlur result="blur-3" stdDeviation="22"/>
      <feFlood flood-color="#000" flood-opacity=".75"/>
      <feComposite in2="blur-3" operator="in"/>
      <feComposite in="SourceGraphic"/>
    </filter>
    <filter id="drop-shadow-4" filterUnits="userSpaceOnUse">
      <feOffset dx="0" dy="0"/>
      <feGaussianBlur result="blur-4" stdDeviation="22"/>
      <feFlood flood-color="#000" flood-opacity=".75"/>
      <feComposite in2="blur-4" operator="in"/>
      <feComposite in="SourceGraphic"/>
    </filter>
  </defs>
  <text class="cls-95" transform="translate(-191.19 265.2)"><tspan class="cls-101" x="0" y="0">V</tspan><tspan x="48.5" y="0">ault</tspan></text>
  <g>
    <polygon points="81.19 .18 81.18 .18 21.08 .18 21.08 .18 .11 .18 .11 72.44 .11 171.25 .11 265.55 98.36 265.55 98.36 265.55 158.46 265.55 158.47 265.55 179.43 265.55 179.43 193.29 179.43 94.48 179.43 .18 81.19 .18"/>
    <g class="cls-99">
      <g>
        <path class="cls-34" d="M171.43,77.85l-71.97,94.82c-5.05,6.65-15.06,6.65-20.11,0L7.38,77.85"/>
        <path class="cls-84" d="M171.43,77.09l-71.97,94.82c-5.05,6.65-15.06,6.65-20.11,0L7.38,77.09"/>
        <path class="cls-57" d="M171.43,76.33l-71.97,94.82c-5.05,6.65-15.06,6.65-20.11,0L7.38,76.33"/>
        <path class="cls-18" d="M171.43,75.57l-71.97,94.82c-5.05,6.65-15.06,6.65-20.11,0L7.38,75.57"/>
        <path class="cls-56" d="M171.43,74.81l-71.97,94.82c-5.05,6.65-15.06,6.65-20.11,0L7.38,74.81"/>
        <path class="cls-74" d="M171.43,74.05l-71.97,94.82c-5.05,6.65-15.06,6.65-20.11,0L7.38,74.05"/>
        <path class="cls-89" d="M171.43,73.29l-71.97,94.82c-5.05,6.65-15.06,6.65-20.11,0L7.38,73.29"/>
        <path class="cls-73" d="M171.43,72.53l-71.97,94.82c-5.05,6.65-15.06,6.65-20.11,0L7.38,72.53"/>
        <path class="cls-87" d="M171.43,71.77l-71.97,94.82c-5.05,6.65-15.06,6.65-20.11,0L7.38,71.77"/>
        <path class="cls-16" d="M171.43,71.01l-71.97,94.82c-5.05,6.65-15.06,6.65-20.11,0L7.38,71.01"/>
        <path class="cls-88" d="M171.43,70.25l-71.97,94.82c-5.05,6.65-15.06,6.65-20.11,0L7.38,70.25"/>
        <path class="cls-37" d="M171.43,69.49l-71.97,94.82c-5.05,6.65-15.06,6.65-20.11,0L7.38,69.49"/>
        <path class="cls-75" d="M171.43,68.73l-71.97,94.82c-5.05,6.65-15.06,6.65-20.11,0L7.38,68.73"/>
        <path class="cls-79" d="M171.43,67.97l-71.97,94.82c-5.05,6.65-15.06,6.65-20.11,0L7.38,67.97"/>
        <path class="cls-78" d="M171.43,67.21l-71.97,94.82c-5.05,6.65-15.06,6.65-20.11,0L7.38,67.21"/>
        <path class="cls-91" d="M171.43,66.45l-71.97,94.82c-5.05,6.65-15.06,6.65-20.11,0L7.38,66.45"/>
        <path class="cls-5" d="M171.43,65.69l-71.97,94.82c-5.05,6.65-15.06,6.65-20.11,0L7.38,65.69"/>
        <path class="cls-28" d="M171.43,64.93l-71.97,94.82c-5.05,6.65-15.06,6.65-20.11,0L7.38,64.93"/>
        <path class="cls-21" d="M171.43,64.17l-71.97,94.82c-5.05,6.65-15.06,6.65-20.11,0L7.38,64.17"/>
        <path class="cls-23" d="M171.43,63.41l-71.97,94.82c-5.05,6.65-15.06,6.65-20.11,0L7.38,63.41"/>
        <path class="cls-1" d="M171.43,62.65l-71.97,94.82c-5.05,6.65-15.06,6.65-20.11,0L7.38,62.65"/>
        <path class="cls-36" d="M171.43,61.89l-71.97,94.82c-5.05,6.65-15.06,6.65-20.11,0L7.38,61.89"/>
        <path class="cls-47" d="M171.43,61.13l-71.97,94.82c-5.05,6.65-15.06,6.65-20.11,0L7.38,61.13"/>
        <path class="cls-9" d="M171.43,60.37l-71.97,94.82c-5.05,6.65-15.06,6.65-20.11,0L7.38,60.37"/>
        <path class="cls-61" d="M171.43,59.61l-71.97,94.82c-5.05,6.65-15.06,6.65-20.11,0L7.38,59.61"/>
        <path class="cls-12" d="M171.43,58.85l-71.97,94.82c-5.05,6.65-15.06,6.65-20.11,0L7.38,58.85"/>
        <path class="cls-27" d="M171.43,58.09l-71.97,94.82c-5.05,6.65-15.06,6.65-20.11,0L7.38,58.09"/>
        <path class="cls-11" d="M171.43,57.33l-71.97,94.82c-5.05,6.65-15.06,6.65-20.11,0L7.38,57.33"/>
        <path class="cls-54" d="M171.43,56.57l-71.97,94.82c-5.05,6.65-15.06,6.65-20.11,0L7.38,56.57"/>
        <path class="cls-50" d="M171.43,55.81l-71.97,94.82c-5.05,6.65-15.06,6.65-20.11,0L7.38,55.81"/>
        <path class="cls-52" d="M171.43,55.05l-71.97,94.82c-5.05,6.65-15.06,6.65-20.11,0L7.38,55.05"/>
        <path class="cls-51" d="M171.43,54.29l-71.97,94.82c-5.05,6.65-15.06,6.65-20.11,0L7.38,54.29"/>
        <path class="cls-58" d="M171.43,53.53l-71.97,94.82c-5.05,6.65-15.06,6.65-20.11,0L7.38,53.53"/>
        <path class="cls-76" d="M171.43,52.77l-71.97,94.82c-5.05,6.65-15.06,6.65-20.11,0L7.38,52.77"/>
        <path class="cls-77" d="M171.43,52.01l-71.97,94.82c-5.05,6.65-15.06,6.65-20.11,0L7.38,52.01"/>
        <path class="cls-33" d="M171.43,51.25l-71.97,94.82c-5.05,6.65-15.06,6.65-20.11,0L7.38,51.25"/>
        <path class="cls-38" d="M171.43,50.49l-71.97,94.82c-5.05,6.65-15.06,6.65-20.11,0L7.38,50.49"/>
        <path class="cls-39" d="M171.43,49.73l-71.97,94.82c-5.05,6.65-15.06,6.65-20.11,0L7.38,49.73"/>
        <path class="cls-43" d="M171.43,48.97l-71.97,94.82c-5.05,6.65-15.06,6.65-20.11,0L7.38,48.97"/>
        <path class="cls-66" d="M171.43,48.21l-71.97,94.82c-5.05,6.65-15.06,6.65-20.11,0L7.38,48.21"/>
        <path class="cls-40" d="M171.43,47.45l-71.97,94.82c-5.05,6.65-15.06,6.65-20.11,0L7.38,47.45"/>
        <path class="cls-64" d="M171.43,46.69l-71.97,94.82c-5.05,6.65-15.06,6.65-20.11,0L7.38,46.69"/>
        <path class="cls-70" d="M171.43,45.93l-71.97,94.82c-5.05,6.65-15.06,6.65-20.11,0L7.38,45.93"/>
        <path class="cls-67" d="M171.43,45.17l-71.97,94.82c-5.05,6.65-15.06,6.65-20.11,0L7.38,45.17"/>
        <path class="cls-68" d="M171.43,44.41l-71.97,94.82c-5.05,6.65-15.06,6.65-20.11,0L7.38,44.41"/>
        <path class="cls-6" d="M171.43,43.65l-71.97,94.82c-5.05,6.65-15.06,6.65-20.11,0L7.38,43.65"/>
        <path class="cls-8" d="M171.43,42.89l-71.97,94.82c-5.05,6.65-15.06,6.65-20.11,0L7.38,42.89"/>
        <path class="cls-7" d="M171.43,42.13l-71.97,94.82c-5.05,6.65-15.06,6.65-20.11,0L7.38,42.13"/>
        <path class="cls-85" d="M171.43,41.37l-71.97,94.82c-5.05,6.65-15.06,6.65-20.11,0L7.38,41.37"/>
        <path class="cls-83" d="M171.43,40.61l-71.97,94.82c-5.05,6.65-15.06,6.65-20.11,0L7.38,40.61"/>
        <path class="cls-19" d="M171.43,39.85l-71.97,94.82c-5.05,6.65-15.06,6.65-20.11,0L7.38,39.85"/>
        <path class="cls-44" d="M171.43,39.09l-71.97,94.82c-5.05,6.65-15.06,6.65-20.11,0L7.38,39.09"/>
        <path class="cls-81" d="M171.43,38.33l-71.97,94.82c-5.05,6.65-15.06,6.65-20.11,0L7.38,38.33"/>
        <path class="cls-90" d="M171.43,37.57l-71.97,94.82c-5.05,6.65-15.06,6.65-20.11,0L7.38,37.57"/>
        <path class="cls-30" d="M171.43,36.81l-71.97,94.82c-5.05,6.65-15.06,6.65-20.11,0L7.38,36.81"/>
        <path class="cls-22" d="M171.43,36.05l-71.97,94.82c-5.05,6.65-15.06,6.65-20.11,0L7.38,36.05"/>
        <path class="cls-45" d="M171.43,35.29l-71.97,94.82c-5.05,6.65-15.06,6.65-20.11,0L7.38,35.29"/>
        <path class="cls-3" d="M171.43,34.53l-71.97,94.82c-5.05,6.65-15.06,6.65-20.11,0L7.38,34.53"/>
        <path class="cls-15" d="M171.43,33.77l-71.97,94.82c-5.05,6.65-15.06,6.65-20.11,0L7.38,33.77"/>
        <path class="cls-14" d="M171.43,33.01l-71.97,94.82c-5.05,6.65-15.06,6.65-20.11,0L7.38,33.01"/>
        <path class="cls-48" d="M171.43,32.25l-71.97,94.82c-5.05,6.65-15.06,6.65-20.11,0L7.38,32.25"/>
        <path class="cls-55" d="M171.43,31.49l-71.97,94.82c-5.05,6.65-15.06,6.65-20.11,0L7.38,31.49"/>
        <path class="cls-72" d="M171.43,30.73l-71.97,94.82c-5.05,6.65-15.06,6.65-20.11,0L7.38,30.73"/>
        <path class="cls-32" d="M171.43,29.97l-71.97,94.82c-5.05,6.65-15.06,6.65-20.11,0L7.38,29.97"/>
        <path class="cls-35" d="M171.43,29.21l-71.97,94.82c-5.05,6.65-15.06,6.65-20.11,0L7.38,29.21"/>
        <path class="cls-59" d="M171.43,28.45l-71.97,94.82c-5.05,6.65-15.06,6.65-20.11,0L7.38,28.45"/>
        <path class="cls-62" d="M171.43,27.69l-71.97,94.82c-5.05,6.65-15.06,6.65-20.11,0L7.38,27.69"/>
        <path class="cls-69" d="M171.43,26.93l-71.97,94.82c-5.05,6.65-15.06,6.65-20.11,0L7.38,26.93"/>
        <path class="cls-92" d="M171.43,26.17l-71.97,94.82c-5.05,6.65-15.06,6.65-20.11,0L7.38,26.17"/>
        <path class="cls-4" d="M171.43,25.41l-71.97,94.82c-5.05,6.65-15.06,6.65-20.11,0L7.38,25.41"/>
        <path class="cls-86" d="M171.43,24.65l-71.97,94.82c-5.05,6.65-15.06,6.65-20.11,0L7.38,24.65"/>
        <path class="cls-31" d="M171.43,23.89l-71.97,94.82c-5.05,6.65-15.06,6.65-20.11,0L7.38,23.89"/>
        <path class="cls-82" d="M171.43,23.13l-71.97,94.82c-5.05,6.65-15.06,6.65-20.11,0L7.38,23.13"/>
        <path class="cls-24" d="M171.43,22.37l-71.97,94.82c-5.05,6.65-15.06,6.65-20.11,0L7.38,22.37"/>
        <path class="cls-2" d="M171.43,21.61l-71.97,94.82c-5.05,6.65-15.06,6.65-20.11,0L7.38,21.61"/>
        <path class="cls-17" d="M171.43,20.85l-71.97,94.82c-5.05,6.65-15.06,6.65-20.11,0L7.38,20.85"/>
        <path class="cls-49" d="M171.43,20.09l-71.97,94.82c-5.05,6.65-15.06,6.65-20.11,0L7.38,20.09"/>
        <path class="cls-53" d="M171.43,19.33l-71.97,94.82c-5.05,6.65-15.06,6.65-20.11,0L7.38,19.33"/>
        <path class="cls-60" d="M171.43,18.57l-71.97,94.82c-5.05,6.65-15.06,6.65-20.11,0L7.38,18.57"/>
        <path class="cls-65" d="M171.43,17.81l-71.97,94.82c-5.05,6.65-15.06,6.65-20.11,0L7.38,17.81"/>
        <path class="cls-46" d="M171.43,17.05l-71.97,94.82c-5.05,6.65-15.06,6.65-20.11,0L7.38,17.05"/>
        <path class="cls-26" d="M171.43,16.29l-71.97,94.82c-5.05,6.65-15.06,6.65-20.11,0L7.38,16.29"/>
        <path class="cls-25" d="M171.43,15.53l-71.97,94.82c-5.05,6.65-15.06,6.65-20.11,0L7.38,15.53"/>
        <path class="cls-10" d="M171.43,14.77l-71.97,94.82c-5.05,6.65-15.06,6.65-20.11,0L7.38,14.77"/>
        <path class="cls-63" d="M171.43,14.01l-71.97,94.82c-5.05,6.65-15.06,6.65-20.11,0L7.38,14.01"/>
        <path class="cls-71" d="M171.43,13.25l-71.97,94.82c-5.05,6.65-15.06,6.65-20.11,0L7.38,13.25"/>
        <path class="cls-20" d="M171.43,12.49l-71.97,94.82c-5.05,6.65-15.06,6.65-20.11,0L7.38,12.49"/>
        <path class="cls-42" d="M171.43,11.73l-71.97,94.82c-5.05,6.65-15.06,6.65-20.11,0L7.38,11.73"/>
        <path class="cls-80" d="M171.43,10.97l-71.97,94.82c-5.05,6.65-15.06,6.65-20.11,0L7.38,10.97"/>
        <path class="cls-41" d="M171.43,10.21l-71.97,94.82c-5.05,6.65-15.06,6.65-20.11,0L7.38,10.21"/>
        <path class="cls-29" d="M171.43,9.45l-71.97,94.82c-5.05,6.65-15.06,6.65-20.11,0L7.38,9.45"/>
        <path class="cls-13" d="M171.43,8.69l-71.97,94.82c-5.05,6.65-15.06,6.65-20.11,0L7.38,8.69"/>
      </g>
      <g>
        <path class="cls-34" d="M171.43,158.29l-71.97,84.56c-5.05,5.93-15.06,5.93-20.11,0L7.38,158.29"/>
        <path class="cls-84" d="M171.43,157.62l-71.97,84.56c-5.05,5.93-15.06,5.93-20.11,0L7.38,157.62"/>
        <path class="cls-57" d="M171.43,156.94l-71.97,84.56c-5.05,5.93-15.06,5.93-20.11,0L7.38,156.94"/>
        <path class="cls-18" d="M171.43,156.26l-71.97,84.56c-5.05,5.93-15.06,5.93-20.11,0L7.38,156.26"/>
        <path class="cls-56" d="M171.43,155.58l-71.97,84.56c-5.05,5.93-15.06,5.93-20.11,0L7.38,155.58"/>
        <path class="cls-74" d="M171.43,154.91l-71.97,84.56c-5.05,5.93-15.06,5.93-20.11,0L7.38,154.91"/>
        <path class="cls-89" d="M171.43,154.23l-71.97,84.56c-5.05,5.93-15.06,5.93-20.11,0L7.38,154.23"/>
        <path class="cls-73" d="M171.43,153.55l-71.97,84.56c-5.05,5.93-15.06,5.93-20.11,0L7.38,153.55"/>
        <path class="cls-87" d="M171.43,152.87l-71.97,84.56c-5.05,5.93-15.06,5.93-20.11,0L7.38,152.87"/>
        <path class="cls-16" d="M171.43,152.19l-71.97,84.56c-5.05,5.93-15.06,5.93-20.11,0L7.38,152.19"/>
        <path class="cls-88" d="M171.43,151.52l-71.97,84.56c-5.05,5.93-15.06,5.93-20.11,0L7.38,151.52"/>
        <path class="cls-37" d="M171.43,150.84l-71.97,84.56c-5.05,5.93-15.06,5.93-20.11,0L7.38,150.84"/>
        <path class="cls-75" d="M171.43,150.16l-71.97,84.56c-5.05,5.93-15.06,5.93-20.11,0L7.38,150.16"/>
        <path class="cls-79" d="M171.43,149.48l-71.97,84.56c-5.05,5.93-15.06,5.93-20.11,0L7.38,149.48"/>
        <path class="cls-78" d="M171.43,148.81l-71.97,84.56c-5.05,5.93-15.06,5.93-20.11,0L7.38,148.81"/>
        <path class="cls-91" d="M171.43,148.13l-71.97,84.56c-5.05,5.93-15.06,5.93-20.11,0L7.38,148.13"/>
        <path class="cls-5" d="M171.43,147.45l-71.97,84.56c-5.05,5.93-15.06,5.93-20.11,0L7.38,147.45"/>
        <path class="cls-28" d="M171.43,146.77l-71.97,84.56c-5.05,5.93-15.06,5.93-20.11,0L7.38,146.77"/>
        <path class="cls-21" d="M171.43,146.09l-71.97,84.56c-5.05,5.93-15.06,5.93-20.11,0L7.38,146.09"/>
        <path class="cls-23" d="M171.43,145.42l-71.97,84.56c-5.05,5.93-15.06,5.93-20.11,0L7.38,145.42"/>
        <path class="cls-1" d="M171.43,144.74l-71.97,84.56c-5.05,5.93-15.06,5.93-20.11,0L7.38,144.74"/>
        <path class="cls-36" d="M171.43,144.06l-71.97,84.56c-5.05,5.93-15.06,5.93-20.11,0L7.38,144.06"/>
        <path class="cls-47" d="M171.43,143.38l-71.97,84.56c-5.05,5.93-15.06,5.93-20.11,0L7.38,143.38"/>
        <path class="cls-9" d="M171.43,142.71l-71.97,84.56c-5.05,5.93-15.06,5.93-20.11,0L7.38,142.71"/>
        <path class="cls-61" d="M171.43,142.03l-71.97,84.56c-5.05,5.93-15.06,5.93-20.11,0L7.38,142.03"/>
        <path class="cls-12" d="M171.43,141.35l-71.97,84.56c-5.05,5.93-15.06,5.93-20.11,0L7.38,141.35"/>
        <path class="cls-27" d="M171.43,140.67l-71.97,84.56c-5.05,5.93-15.06,5.93-20.11,0L7.38,140.67"/>
        <path class="cls-11" d="M171.43,140l-71.97,84.56c-5.05,5.93-15.06,5.93-20.11,0L7.38,140"/>
        <path class="cls-54" d="M171.43,139.32l-71.97,84.56c-5.05,5.93-15.06,5.93-20.11,0L7.38,139.32"/>
        <path class="cls-50" d="M171.43,138.64l-71.97,84.56c-5.05,5.93-15.06,5.93-20.11,0L7.38,138.64"/>
        <path class="cls-52" d="M171.43,137.96l-71.97,84.56c-5.05,5.93-15.06,5.93-20.11,0L7.38,137.96"/>
        <path class="cls-51" d="M171.43,137.28l-71.97,84.56c-5.05,5.93-15.06,5.93-20.11,0L7.38,137.28"/>
        <path class="cls-58" d="M171.43,136.61l-71.97,84.56c-5.05,5.93-15.06,5.93-20.11,0L7.38,136.61"/>
        <path class="cls-76" d="M171.43,135.93l-71.97,84.56c-5.05,5.93-15.06,5.93-20.11,0L7.38,135.93"/>
        <path class="cls-77" d="M171.43,135.25l-71.97,84.56c-5.05,5.93-15.06,5.93-20.11,0L7.38,135.25"/>
        <path class="cls-33" d="M171.43,134.57l-71.97,84.56c-5.05,5.93-15.06,5.93-20.11,0L7.38,134.57"/>
        <path class="cls-38" d="M171.43,133.9l-71.97,84.56c-5.05,5.93-15.06,5.93-20.11,0L7.38,133.9"/>
        <path class="cls-39" d="M171.43,133.22l-71.97,84.56c-5.05,5.93-15.06,5.93-20.11,0L7.38,133.22"/>
        <path class="cls-43" d="M171.43,132.54l-71.97,84.56c-5.05,5.93-15.06,5.93-20.11,0L7.38,132.54"/>
        <path class="cls-66" d="M171.43,131.86l-71.97,84.56c-5.05,5.93-15.06,5.93-20.11,0L7.38,131.86"/>
        <path class="cls-40" d="M171.43,131.18l-71.97,84.56c-5.05,5.93-15.06,5.93-20.11,0L7.38,131.18"/>
        <path class="cls-64" d="M171.43,130.51l-71.97,84.56c-5.05,5.93-15.06,5.93-20.11,0L7.38,130.51"/>
        <path class="cls-70" d="M171.43,129.83l-71.97,84.56c-5.05,5.93-15.06,5.93-20.11,0L7.38,129.83"/>
        <path class="cls-67" d="M171.43,129.15l-71.97,84.56c-5.05,5.93-15.06,5.93-20.11,0L7.38,129.15"/>
        <path class="cls-68" d="M171.43,128.47l-71.97,84.56c-5.05,5.93-15.06,5.93-20.11,0L7.38,128.47"/>
        <path class="cls-6" d="M171.43,127.8l-71.97,84.56c-5.05,5.93-15.06,5.93-20.11,0L7.38,127.8"/>
        <path class="cls-8" d="M171.43,127.12l-71.97,84.56c-5.05,5.93-15.06,5.93-20.11,0L7.38,127.12"/>
        <path class="cls-7" d="M171.43,126.44l-71.97,84.56c-5.05,5.93-15.06,5.93-20.11,0L7.38,126.44"/>
        <path class="cls-85" d="M171.43,125.76l-71.97,84.56c-5.05,5.93-15.06,5.93-20.11,0L7.38,125.76"/>
        <path class="cls-83" d="M171.43,125.08l-71.97,84.56c-5.05,5.93-15.06,5.93-20.11,0L7.38,125.08"/>
        <path class="cls-19" d="M171.43,124.41l-71.97,84.56c-5.05,5.93-15.06,5.93-20.11,0L7.38,124.41"/>
        <path class="cls-44" d="M171.43,123.73l-71.97,84.56c-5.05,5.93-15.06,5.93-20.11,0L7.38,123.73"/>
        <path class="cls-81" d="M171.43,123.05l-71.97,84.56c-5.05,5.93-15.06,5.93-20.11,0L7.38,123.05"/>
        <path class="cls-90" d="M171.43,122.37l-71.97,84.56c-5.05,5.93-15.06,5.93-20.11,0L7.38,122.37"/>
        <path class="cls-30" d="M171.43,121.7l-71.97,84.56c-5.05,5.93-15.06,5.93-20.11,0L7.38,121.7"/>
        <path class="cls-22" d="M171.43,121.02l-71.97,84.56c-5.05,5.93-15.06,5.93-20.11,0L7.38,121.02"/>
        <path class="cls-45" d="M171.43,120.34l-71.97,84.56c-5.05,5.93-15.06,5.93-20.11,0L7.38,120.34"/>
        <path class="cls-3" d="M171.43,119.66l-71.97,84.56c-5.05,5.93-15.06,5.93-20.11,0L7.38,119.66"/>
        <path class="cls-15" d="M171.43,118.99l-71.97,84.56c-5.05,5.93-15.06,5.93-20.11,0L7.38,118.99"/>
        <path class="cls-14" d="M171.43,118.31l-71.97,84.56c-5.05,5.93-15.06,5.93-20.11,0L7.38,118.31"/>
        <path class="cls-48" d="M171.43,117.63l-71.97,84.56c-5.05,5.93-15.06,5.93-20.11,0L7.38,117.63"/>
        <path class="cls-55" d="M171.43,116.95l-71.97,84.56c-5.05,5.93-15.06,5.93-20.11,0L7.38,116.95"/>
        <path class="cls-72" d="M171.43,116.27l-71.97,84.56c-5.05,5.93-15.06,5.93-20.11,0L7.38,116.27"/>
        <path class="cls-32" d="M171.43,115.6l-71.97,84.56c-5.05,5.93-15.06,5.93-20.11,0L7.38,115.6"/>
        <path class="cls-35" d="M171.43,114.92l-71.97,84.56c-5.05,5.93-15.06,5.93-20.11,0L7.38,114.92"/>
        <path class="cls-59" d="M171.43,114.24l-71.97,84.56c-5.05,5.93-15.06,5.93-20.11,0L7.38,114.24"/>
        <path class="cls-62" d="M171.43,113.56l-71.97,84.56c-5.05,5.93-15.06,5.93-20.11,0L7.38,113.56"/>
        <path class="cls-69" d="M171.43,112.89l-71.97,84.56c-5.05,5.93-15.06,5.93-20.11,0L7.38,112.89"/>
        <path class="cls-92" d="M171.43,112.21l-71.97,84.56c-5.05,5.93-15.06,5.93-20.11,0L7.38,112.21"/>
        <path class="cls-4" d="M171.43,111.53l-71.97,84.56c-5.05,5.93-15.06,5.93-20.11,0L7.38,111.53"/>
        <path class="cls-86" d="M171.43,110.85l-71.97,84.56c-5.05,5.93-15.06,5.93-20.11,0L7.38,110.85"/>
        <path class="cls-31" d="M171.43,110.17l-71.97,84.56c-5.05,5.93-15.06,5.93-20.11,0L7.38,110.17"/>
        <path class="cls-82" d="M171.43,109.5l-71.97,84.56c-5.05,5.93-15.06,5.93-20.11,0L7.38,109.5"/>
        <path class="cls-24" d="M171.43,108.82l-71.97,84.56c-5.05,5.93-15.06,5.93-20.11,0L7.38,108.82"/>
        <path class="cls-2" d="M171.43,108.14l-71.97,84.56c-5.05,5.93-15.06,5.93-20.11,0L7.38,108.14"/>
        <path class="cls-17" d="M171.43,107.46l-71.97,84.56c-5.05,5.93-15.06,5.93-20.11,0L7.38,107.46"/>
        <path class="cls-49" d="M171.43,106.79l-71.97,84.56c-5.05,5.93-15.06,5.93-20.11,0L7.38,106.79"/>
        <path class="cls-53" d="M171.43,106.11l-71.97,84.56c-5.05,5.93-15.06,5.93-20.11,0L7.38,106.11"/>
        <path class="cls-60" d="M171.43,105.43l-71.97,84.56c-5.05,5.93-15.06,5.93-20.11,0L7.38,105.43"/>
        <path class="cls-65" d="M171.43,104.75l-71.97,84.56c-5.05,5.93-15.06,5.93-20.11,0L7.38,104.75"/>
        <path class="cls-46" d="M171.43,104.08l-71.97,84.56c-5.05,5.93-15.06,5.93-20.11,0L7.38,104.08"/>
        <path class="cls-26" d="M171.43,103.4l-71.97,84.56c-5.05,5.93-15.06,5.93-20.11,0L7.38,103.4"/>
        <path class="cls-25" d="M171.43,102.72l-71.97,84.56c-5.05,5.93-15.06,5.93-20.11,0L7.38,102.72"/>
        <path class="cls-10" d="M171.43,102.04l-71.97,84.56c-5.05,5.93-15.06,5.93-20.11,0L7.38,102.04"/>
        <path class="cls-63" d="M171.43,101.36l-71.97,84.56c-5.05,5.93-15.06,5.93-20.11,0L7.38,101.36"/>
        <path class="cls-71" d="M171.43,100.69l-71.97,84.56c-5.05,5.93-15.06,5.93-20.11,0L7.38,100.69"/>
        <path class="cls-20" d="M171.43,100.01l-71.97,84.56c-5.05,5.93-15.06,5.93-20.11,0L7.38,100.01"/>
        <path class="cls-42" d="M171.43,99.33l-71.97,84.56c-5.05,5.93-15.06,5.93-20.11,0L7.38,99.33"/>
        <path class="cls-80" d="M171.43,98.65l-71.97,84.56c-5.05,5.93-15.06,5.93-20.11,0L7.38,98.65"/>
        <path class="cls-41" d="M171.43,97.98l-71.97,84.56c-5.05,5.93-15.06,5.93-20.11,0L7.38,97.98"/>
        <path class="cls-29" d="M171.43,97.3l-71.97,84.56c-5.05,5.93-15.06,5.93-20.11,0L7.38,97.3"/>
        <path class="cls-13" d="M171.43,96.62l-71.97,84.56c-5.05,5.93-15.06,5.93-20.11,0L7.38,96.62"/>
      </g>
    </g>
    <text class="cls-97" transform="translate(6.99 252.48)"><tspan class="cls-100" x="0" y="0">V</tspan><tspan x="44.22" y="0">ault</tspan></text>
    <text class="cls-98" transform="translate(60.37 65.36)"><tspan class="cls-94"><tspan x="0" y="0">Startup</tspan></tspan><tspan class="cls-93"><tspan class="cls-103" x="14.1" y="13.1">C</tspan><tspan x="22.6" y="13.1">a</tspan><tspan class="cls-102" x="29.33" y="13.1">r</tspan><tspan x="34.64" y="13.1">d</tspan></tspan></text>
  </g>
  <text class="cls-96" transform="translate(199.77 252.48)"><tspan class="cls-100" x="0" y="0">V</tspan><tspan x="44.22" y="0">ault</tspan></text>
</svg>